<?xml version="1.0" encoding="utf-8"?>
<!-- Generator: Adobe Illustrator 23.0.2, SVG Export Plug-In . SVG Version: 6.00 Build 0)  -->
<svg version="1.1" id="layer1" xmlns="http://www.w3.org/2000/svg" xmlns:xlink="http://www.w3.org/1999/xlink" x="0px" y="0px"
	 viewBox="0 0 1200 500" style="enable-background:new 0 0 1200 500;" xml:space="preserve">
<style type="text/css">
	.st0{fill:#FFFCF2;fill-opacity:0.7;stroke:#FFFCF2;stroke-opacity:0;}
	.st1{fill:#FFFBE9;fill-opacity:0.7;stroke:#FFFBE9;stroke-opacity:0;}
	.st2{fill:#FFF8E3;fill-opacity:0.7;stroke:#FFF8E3;stroke-opacity:0;}
	.st3{fill:#FFF6E3;fill-opacity:0.7;stroke:#FFF6E3;stroke-opacity:0;}
	.st4{fill:#FFF1DB;fill-opacity:0.7;stroke:#FFF1DB;stroke-opacity:0;}
	.st5{fill:#FFEFDB;fill-opacity:0.7;stroke:#FFEFDB;stroke-opacity:0;}
	.st6{fill:#FFEADB;fill-opacity:0.7;stroke:#FFEADB;stroke-opacity:0;}
	.st7{fill:#FFE6E0;fill-opacity:0.7;stroke:#FFE6E0;stroke-opacity:0;}
	.st8{fill:#FFECF0;fill-opacity:0.7;stroke:#FFECF0;stroke-opacity:0;}
	.st9{fill:#FFEAF4;fill-opacity:0.7;stroke:#FFEAF4;stroke-opacity:0;}
	.st10{fill:#FFEFFF;fill-opacity:0.7;stroke:#FFEFFF;stroke-opacity:0;}
	.st11{fill:#FFE6FA;fill-opacity:0.7;stroke:#FFE6FA;stroke-opacity:0;}
	.st12{fill:#FFDDF7;fill-opacity:0.7;stroke:#FFDDF7;stroke-opacity:0;}
	.st13{fill:#FFD5EE;fill-opacity:0.7;stroke:#FFD5EE;stroke-opacity:0;}
	.st14{fill:#FFCAEB;fill-opacity:0.7;stroke:#FFCAEB;stroke-opacity:0;}
	.st15{fill:#FEBEE1;fill-opacity:0.7;stroke:#FEBEE1;stroke-opacity:0;}
	.st16{fill:#FFB0DB;fill-opacity:0.7;stroke:#FFB0DB;stroke-opacity:0;}
	.st17{fill:#FFA9D7;fill-opacity:0.7;stroke:#FFA9D7;stroke-opacity:0;}
	.st18{fill:#FFFCE5;fill-opacity:0.7;stroke:#FFFCE5;stroke-opacity:0;}
	.st19{fill:#FFFADE;fill-opacity:0.7;stroke:#FFFADE;stroke-opacity:0;}
	.st20{fill:#FFF6D4;fill-opacity:0.7;stroke:#FFF6D4;stroke-opacity:0;}
	.st21{fill:#FFF5D5;fill-opacity:0.7;stroke:#FFF5D5;stroke-opacity:0;}
	.st22{fill:#FFF1D3;fill-opacity:0.7;stroke:#FFF1D3;stroke-opacity:0;}
	.st23{fill:#FFE9EC;fill-opacity:0.7;stroke:#FFE9EC;stroke-opacity:0;}
	.st24{fill:#FFECF6;fill-opacity:0.7;stroke:#FFECF6;stroke-opacity:0;}
	.st25{fill:#FABCD9;fill-opacity:0.7;stroke:#FABCD9;stroke-opacity:0;}
	.st26{fill:#FBB1D3;fill-opacity:0.7;stroke:#FBB1D3;stroke-opacity:0;}
	.st27{fill:#FFFAE4;fill-opacity:0.7;stroke:#FFFAE4;stroke-opacity:0;}
</style>
<polygon class="st0" points="0,0 0,43.8 34.1,0 "/>
<polygon class="st1" points="112,78.1 56.8,0 34.1,0 0,43.8 0,86.2 "/>
<polygon class="st2" points="77,0 56.8,0 112,78.1 185,53.4 "/>
<polygon class="st3" points="228.4,0 77,0 185,53.4 "/>
<polygon class="st4" points="372,30.7 302.4,0 228.4,0 185,53.4 "/>
<polygon class="st5" points="374,0 302.4,0 372,30.7 "/>
<polygon class="st6" points="557,56.7 412.4,0 374,0 372,30.7 "/>
<polygon class="st7" points="412.4,0 557,56.7 570.7,0 "/>
<polygon class="st8" points="557,56.7 691,28 626.6,0 570.7,0 "/>
<polygon class="st9" points="667.4,0 626.6,0 691,28 "/>
<polygon class="st10" points="769,0 667.4,0 691,28 "/>
<polygon class="st11" points="852,60.1 857.2,0 769,0 691,28 "/>
<polygon class="st12" points="893.9,0 857.2,0 852,60.1 "/>
<polygon class="st13" points="1004,75.4 946.5,0 893.9,0 852,60.1 "/>
<polygon class="st14" points="1064.9,0 946.5,0 1004,75.4 "/>
<polygon class="st15" points="1004,75.4 1141,28 1113.7,0 1064.9,0 "/>
<polygon class="st16" points="1181.6,0 1113.7,0 1141,28 "/>
<polygon class="st17" points="1200,43.2 1200,0 1181.6,0 1141,28 "/>
<polygon class="st18" points="0,86.2 0,119.7 112,78.1 "/>
<polygon class="st19" points="112,78.1 0,119.7 0,141.2 78,168.2 "/>
<polygon class="st20" points="268,144.2 112,78.1 78,168.2 "/>
<polygon class="st21" points="185,53.4 112,78.1 268,144.2 "/>
<polygon class="st22" points="185,53.4 268,144.2 372,30.7 "/>
<polygon class="st23" points="691,28 557,56.7 704,126.1 "/>
<polygon class="st24" points="852,60.1 691,28 704,126.1 "/>
<polygon class="st25" points="1141,28 1004,75.4 1126,119.5 "/>
<polygon class="st26" points="1126,119.5 1200,71.9 1200,43.2 1141,28 "/>
<polygon class="st27" points="0,141.2 0,227.9 78,168.2 "/>
</svg>
