<?xml version="1.0" encoding="utf-8"?>
<!-- Generator: Adobe Illustrator 23.0.2, SVG Export Plug-In . SVG Version: 6.00 Build 0)  -->
<svg version="1.1" id="layer1" xmlns="http://www.w3.org/2000/svg" xmlns:xlink="http://www.w3.org/1999/xlink" x="0px" y="0px"
	 viewBox="0 0 1200 500" style="enable-background:new 0 0 1200 500;" xml:space="preserve">
<style type="text/css">
	.st0{fill:#FFFCF2;fill-opacity:0.7;stroke:#FFFCF2;stroke-opacity:0;}
	.st1{fill:#FFFBE9;fill-opacity:0.7;stroke:#FFFBE9;stroke-opacity:0;}
	.st2{fill:#FFF8E3;fill-opacity:0.7;stroke:#FFF8E3;stroke-opacity:0;}
	.st3{fill:#FFF6E3;fill-opacity:0.7;stroke:#FFF6E3;stroke-opacity:0;}
	.st4{fill:#FFF1DB;fill-opacity:0.7;stroke:#FFF1DB;stroke-opacity:0;}
	.st5{fill:#FFEFDB;fill-opacity:0.7;stroke:#FFEFDB;stroke-opacity:0;}
	.st6{fill:#FFEADB;fill-opacity:0.7;stroke:#FFEADB;stroke-opacity:0;}
	.st7{fill:#FFE6E0;fill-opacity:0.7;stroke:#FFE6E0;stroke-opacity:0;}
	.st8{fill:#FFECF0;fill-opacity:0.7;stroke:#FFECF0;stroke-opacity:0;}
	.st9{fill:#FFEAF4;fill-opacity:0.7;stroke:#FFEAF4;stroke-opacity:0;}
	.st10{fill:#FFEFFF;fill-opacity:0.7;stroke:#FFEFFF;stroke-opacity:0;}
	.st11{fill:#FFE6FA;fill-opacity:0.7;stroke:#FFE6FA;stroke-opacity:0;}
	.st12{fill:#FFDDF7;fill-opacity:0.7;stroke:#FFDDF7;stroke-opacity:0;}
	.st13{fill:#FFD5EE;fill-opacity:0.7;stroke:#FFD5EE;stroke-opacity:0;}
	.st14{fill:#FFCAEB;fill-opacity:0.7;stroke:#FFCAEB;stroke-opacity:0;}
	.st15{fill:#FFBEE1;fill-opacity:0.7;stroke:#FFBEE1;stroke-opacity:0;}
	.st16{fill:#FFB0DB;fill-opacity:0.7;stroke:#FFB0DB;stroke-opacity:0;}
	.st17{fill:#FFA9D7;fill-opacity:0.7;stroke:#FFA9D7;stroke-opacity:0;}
	.st18{fill:#FFFCE5;fill-opacity:0.7;stroke:#FFFCE5;stroke-opacity:0;}
	.st19{fill:#FFFADE;fill-opacity:0.7;stroke:#FFFADE;stroke-opacity:0;}
	.st20{fill:#FFF6D4;fill-opacity:0.7;stroke:#FFF6D4;stroke-opacity:0;}
	.st21{fill:#FFF5D5;fill-opacity:0.7;stroke:#FFF5D5;stroke-opacity:0;}
	.st22{fill:#FFF1D3;fill-opacity:0.7;stroke:#FFF1D3;stroke-opacity:0;}
	.st23{fill:#FFEFCB;fill-opacity:0.7;stroke:#FFEFCB;stroke-opacity:0;}
	.st24{fill:#FFEACF;fill-opacity:0.7;stroke:#FFEACF;stroke-opacity:0;}
	.st25{fill:#FFE6D8;fill-opacity:0.7;stroke:#FFE6D8;stroke-opacity:0;}
	.st26{fill:#FFECE6;fill-opacity:0.7;stroke:#FFECE6;stroke-opacity:0;}
	.st27{fill:#FFE9EC;fill-opacity:0.7;stroke:#FFE9EC;stroke-opacity:0;}
	.st28{fill:#FFECF6;fill-opacity:0.7;stroke:#FFECF6;stroke-opacity:0;}
	.st29{fill:#FFE6ED;fill-opacity:0.7;stroke:#FFE6ED;stroke-opacity:0;}
	.st30{fill:#FFD9E7;fill-opacity:0.7;stroke:#FFD9E7;stroke-opacity:0;}
	.st31{fill:#FFD1DD;fill-opacity:0.7;stroke:#FFD1DD;stroke-opacity:0;}
	.st32{fill:#FFC3D7;fill-opacity:0.7;stroke:#FFC3D7;stroke-opacity:0;}
	.st33{fill:#FFBCD9;fill-opacity:0.7;stroke:#FFBCD9;stroke-opacity:0;}
	.st34{fill:#FFB1D3;fill-opacity:0.7;stroke:#FFB1D3;stroke-opacity:0;}
	.st35{fill:#FFA7C7;fill-opacity:0.7;stroke:#FFA7C7;stroke-opacity:0;}
	.st36{fill:#FFFAE4;fill-opacity:0.7;stroke:#FFFAE4;stroke-opacity:0;}
	.st37{fill:#FFF5E5;fill-opacity:0.7;stroke:#FFF5E5;stroke-opacity:0;}
	.st38{fill:#FFF3DA;fill-opacity:0.7;stroke:#FFF3DA;stroke-opacity:0;}
	.st39{fill:#FFF3D1;fill-opacity:0.7;stroke:#FFF3D1;stroke-opacity:0;}
	.st40{fill:#FFEECD;fill-opacity:0.7;stroke:#FFEECD;stroke-opacity:0;}
</style>
<polygon class="st0" points="0,0 0,40.9 34.1,0 "/>
<polygon class="st1" points="112,72.9 56.8,0 34.1,0 0,40.9 0,80.5 "/>
<polygon class="st2" points="77,0 56.8,0 112,72.9 185,49.8 "/>
<polygon class="st3" points="228.4,0 77,0 185,49.8 "/>
<polygon class="st4" points="372,28.7 302.4,0 228.4,0 185,49.8 "/>
<polygon class="st5" points="374,0 302.4,0 372,28.7 "/>
<polygon class="st6" points="557,52.9 412.4,0 374,0 372,28.7 "/>
<polygon class="st7" points="412.4,0 557,52.9 570.7,0 "/>
<polygon class="st8" points="557,52.9 691,26.2 626.6,0 570.7,0 "/>
<polygon class="st9" points="667.4,0 626.6,0 691,26.2 "/>
<polygon class="st10" points="769,0 667.4,0 691,26.2 "/>
<polygon class="st11" points="852,56.1 857.2,0 769,0 691,26.2 "/>
<polygon class="st12" points="893.9,0 857.2,0 852,56.1 "/>
<polygon class="st13" points="1004,70.4 946.5,0 893.9,0 852,56.1 "/>
<polygon class="st14" points="1064.9,0 946.5,0 1004,70.4 "/>
<polygon class="st15" points="1004,70.4 1141,26.2 1113.7,0 1064.9,0 "/>
<polygon class="st16" points="1181.6,0 1113.7,0 1141,26.2 "/>
<polygon class="st17" points="1200,40.3 1200,0 1181.6,0 1141,26.2 "/>
<polygon class="st18" points="0,80.5 0,111.7 112,72.9 "/>
<polygon class="st19" points="112,72.9 0,111.7 0,131.8 78,157 "/>
<polygon class="st20" points="268,134.5 112,72.9 78,157 "/>
<polygon class="st21" points="185,49.8 112,72.9 268,134.5 "/>
<polygon class="st22" points="185,49.8 268,134.5 372,28.7 "/>
<polygon class="st23" points="268,134.5 350,174.4 372,28.7 "/>
<polygon class="st24" points="350,174.4 580,124.6 372,28.7 "/>
<polygon class="st25" points="372,28.7 580,124.6 557,52.9 "/>
<polygon class="st26" points="557,52.9 580,124.6 704,117.7 "/>
<polygon class="st27" points="691,26.2 557,52.9 704,117.7 "/>
<polygon class="st28" points="852,56.1 691,26.2 704,117.7 "/>
<polygon class="st29" points="844,166.9 852,56.1 704,117.7 "/>
<polygon class="st30" points="844,166.9 1004,70.4 852,56.1 "/>
<polygon class="st31" points="1008,171.3 1004,70.4 844,166.9 "/>
<polygon class="st32" points="1126,111.5 1004,70.4 1008,171.3 "/>
<polygon class="st33" points="1141,26.2 1004,70.4 1126,111.5 "/>
<polygon class="st34" points="1126,111.5 1200,67.1 1200,40.3 1141,26.2 "/>
<polygon class="st35" points="1200,126.7 1200,67.1 1126,111.5 "/>
<polygon class="st36" points="0,131.8 0,212.7 78,157 "/>
<polygon class="st37" points="0,212.7 0,234.9 74,219.3 78,157 "/>
<polygon class="st38" points="74,219.3 218,206.2 78,157 "/>
<polygon class="st39" points="78,157 218,206.2 268,134.5 "/>
<polygon class="st40" points="268,134.5 218,206.2 350,174.4 "/>
</svg>
