<?xml version="1.0" encoding="utf-8"?>
<!-- Generator: Adobe Illustrator 23.0.2, SVG Export Plug-In . SVG Version: 6.00 Build 0)  -->
<svg version="1.1" id="layer1" xmlns="http://www.w3.org/2000/svg" xmlns:xlink="http://www.w3.org/1999/xlink" x="0px" y="0px"
	 viewBox="0 0 1200 500" style="enable-background:new 0 0 1200 500;" xml:space="preserve">
<style type="text/css">
	.st0{fill:#FFFBEF;fill-opacity:0.7;stroke:#FFFBEF;stroke-opacity:0;}
	.st1{fill:#FFFAE5;fill-opacity:0.7;stroke:#FFFAE5;stroke-opacity:0;}
	.st2{fill:#FFF7DD;fill-opacity:0.7;stroke:#FFF7DD;stroke-opacity:0;}
	.st3{fill:#FFF4DD;fill-opacity:0.7;stroke:#FFF4DD;stroke-opacity:0;}
	.st4{fill:#FFEED4;fill-opacity:0.7;stroke:#FFEED4;stroke-opacity:0;}
	.st5{fill:#FFECD4;fill-opacity:0.7;stroke:#FFECD4;stroke-opacity:0;}
	.st6{fill:#FFE6D4;fill-opacity:0.7;stroke:#FFE6D4;stroke-opacity:0;}
	.st7{fill:#FFE1DA;fill-opacity:0.7;stroke:#FFE1DA;stroke-opacity:0;}
	.st8{fill:#FFE8ED;fill-opacity:0.7;stroke:#FFE8ED;stroke-opacity:0;}
	.st9{fill:#FFE6F2;fill-opacity:0.7;stroke:#FFE6F2;stroke-opacity:0;}
	.st10{fill:#FFECFF;fill-opacity:0.7;stroke:#FFECFF;stroke-opacity:0;}
	.st11{fill:#FFE1F9;fill-opacity:0.7;stroke:#FFE1F9;stroke-opacity:0;}
	.st12{fill:#FFD6F5;fill-opacity:0.7;stroke:#FFD6F5;stroke-opacity:0;}
	.st13{fill:#FFCDEB;fill-opacity:0.7;stroke:#FFCDEB;stroke-opacity:0;}
	.st14{fill:#FFBFE7;fill-opacity:0.7;stroke:#FFBFE7;stroke-opacity:0;}
	.st15{fill:#FFB1DB;fill-opacity:0.7;stroke:#FFB1DB;stroke-opacity:0;}
	.st16{fill:#FFA0D4;fill-opacity:0.7;stroke:#FFA0D4;stroke-opacity:0;}
	.st17{fill:#FF98CF;fill-opacity:0.7;stroke:#FF98CF;stroke-opacity:0;}
	.st18{fill:#FFFBE0;fill-opacity:0.7;stroke:#FFFBE0;stroke-opacity:0;}
	.st19{fill:#FFF9D7;fill-opacity:0.7;stroke:#FFF9D7;stroke-opacity:0;}
	.st20{fill:#FFF4CB;fill-opacity:0.7;stroke:#FFF4CB;stroke-opacity:0;}
	.st21{fill:#FFF3CD;fill-opacity:0.7;stroke:#FFF3CD;stroke-opacity:0;}
	.st22{fill:#FFEECA;fill-opacity:0.7;stroke:#FFEECA;stroke-opacity:0;}
	.st23{fill:#FFECC1;fill-opacity:0.7;stroke:#FFECC1;stroke-opacity:0;}
	.st24{fill:#FFE6C5;fill-opacity:0.7;stroke:#FFE6C5;stroke-opacity:0;}
	.st25{fill:#FFE1D0;fill-opacity:0.7;stroke:#FFE1D0;stroke-opacity:0;}
	.st26{fill:#FFE8E1;fill-opacity:0.7;stroke:#FFE8E1;stroke-opacity:0;}
	.st27{fill:#FFE5E8;fill-opacity:0.7;stroke:#FFE5E8;stroke-opacity:0;}
	.st28{fill:#FFE8F4;fill-opacity:0.7;stroke:#FFE8F4;stroke-opacity:0;}
	.st29{fill:#FFE1E9;fill-opacity:0.7;stroke:#FFE1E9;stroke-opacity:0;}
	.st30{fill:#FFD1E2;fill-opacity:0.7;stroke:#FFD1E2;stroke-opacity:0;}
	.st31{fill:#FFC8D6;fill-opacity:0.7;stroke:#FFC8D6;stroke-opacity:0;}
	.st32{fill:#FFB7CF;fill-opacity:0.7;stroke:#FFB7CF;stroke-opacity:0;}
	.st33{fill:#FFAFD1;fill-opacity:0.7;stroke:#FFAFD1;stroke-opacity:0;}
	.st34{fill:#FFA1CA;fill-opacity:0.7;stroke:#FFA1CA;stroke-opacity:0;}
	.st35{fill:#FF95BC;fill-opacity:0.7;stroke:#FF95BC;stroke-opacity:0;}
	.st36{fill:#FFF9DF;fill-opacity:0.7;stroke:#FFF9DF;stroke-opacity:0;}
	.st37{fill:#FFF3E0;fill-opacity:0.7;stroke:#FFF3E0;stroke-opacity:0;}
	.st38{fill:#FFF1D3;fill-opacity:0.7;stroke:#FFF1D3;stroke-opacity:0;}
	.st39{fill:#FFF1C8;fill-opacity:0.7;stroke:#FFF1C8;stroke-opacity:0;}
	.st40{fill:#FFEBC3;fill-opacity:0.7;stroke:#FFEBC3;stroke-opacity:0;}
</style>
<g>
	<polygon class="st0" points="0,0 0,40.9 34.1,0 	"/>
	<polygon class="st1" points="112,72.9 56.8,0 34.1,0 0,40.9 0,80.5 	"/>
	<polygon class="st2" points="77,0 56.8,0 112,72.9 185,49.8 	"/>
	<polygon class="st3" points="228.4,0 77,0 185,49.8 	"/>
	<polygon class="st4" points="372,28.7 302.4,0 228.4,0 185,49.8 	"/>
	<polygon class="st5" points="374,0 302.4,0 372,28.7 	"/>
	<polygon class="st6" points="557,53 412.4,0 374,0 372,28.7 	"/>
	<polygon class="st7" points="412.4,0 557,53 570.7,0 	"/>
	<polygon class="st8" points="557,53 691,26.2 626.6,0 570.7,0 	"/>
	<polygon class="st9" points="667.4,0 626.6,0 691,26.2 	"/>
	<polygon class="st10" points="769,0 667.4,0 691,26.2 	"/>
	<polygon class="st11" points="852,56.1 857.2,0 769,0 691,26.2 	"/>
	<polygon class="st12" points="893.9,0 857.2,0 852,56.1 	"/>
	<polygon class="st13" points="1004,70.4 946.5,0 893.9,0 852,56.1 	"/>
	<polygon class="st14" points="1064.9,0 946.5,0 1004,70.4 	"/>
	<polygon class="st15" points="1004,70.4 1141,26.2 1113.7,0 1064.9,0 	"/>
	<polygon class="st16" points="1181.6,0 1113.7,0 1141,26.2 	"/>
	<polygon class="st17" points="1200,40.3 1200,0 1181.6,0 1141,26.2 	"/>
	<polygon class="st18" points="0,80.5 0,111.7 112,72.9 	"/>
	<polygon class="st19" points="112,72.9 0,111.7 0,131.8 78,157 	"/>
	<polygon class="st20" points="268,134.6 112,72.9 78,157 	"/>
	<polygon class="st21" points="185,49.8 112,72.9 268,134.6 	"/>
	<polygon class="st22" points="185,49.8 268,134.6 372,28.7 	"/>
	<polygon class="st23" points="268,134.6 350,174.4 372,28.7 	"/>
	<polygon class="st24" points="350,174.4 580,124.6 372,28.7 	"/>
	<polygon class="st25" points="372,28.7 580,124.6 557,53 	"/>
	<polygon class="st26" points="557,53 580,124.6 704,117.7 	"/>
	<polygon class="st27" points="691,26.2 557,53 704,117.7 	"/>
	<polygon class="st28" points="852,56.1 691,26.2 704,117.7 	"/>
	<polygon class="st29" points="844,167 852,56.1 704,117.7 	"/>
	<polygon class="st30" points="844,167 1004,70.4 852,56.1 	"/>
	<polygon class="st31" points="1008,171.3 1004,70.4 844,167 	"/>
	<polygon class="st32" points="1126,111.5 1004,70.4 1008,171.3 	"/>
	<polygon class="st33" points="1141,26.2 1004,70.4 1126,111.5 	"/>
	<polygon class="st34" points="1126,111.5 1200,67.2 1200,40.3 1141,26.2 	"/>
	<polygon class="st35" points="1200,126.7 1200,67.2 1126,111.5 	"/>
	<polygon class="st36" points="0,131.8 0,212.8 78,157 	"/>
	<polygon class="st37" points="0,212.8 0,234.9 74,219.3 78,157 	"/>
	<polygon class="st38" points="74,219.3 218,206.2 78,157 	"/>
	<polygon class="st39" points="78,157 218,206.2 268,134.6 	"/>
	<polygon class="st40" points="268,134.6 218,206.2 350,174.4 	"/>
</g>
</svg>
